<?xml version="1.0" encoding="UTF-8" standalone="no"?>
<!DOCTYPE svg PUBLIC "-//W3C//DTD SVG 1.1//EN" "http://www.w3.org/Graphics/SVG/1.1/DTD/svg11.dtd">
<svg width="100%" height="100%" viewBox="0 0 2500 2500" version="1.1" xmlns="http://www.w3.org/2000/svg" xmlns:xlink="http://www.w3.org/1999/xlink" xml:space="preserve" xmlns:serif="http://www.serif.com/" style="fill-rule:evenodd;clip-rule:evenodd;stroke-miterlimit:2;">
    <g transform="matrix(4.16667,0,0,4.16667,0,0)">
        <path d="M548.427,254.133C542.107,220.759 524.142,199.969 505.73,187.114C486.689,173.819 463.881,166.988 440.658,166.988L111.072,166.988C99.607,166.988 95.215,178.182 95.171,183.789C95.167,184.52 95.193,187.446 95.193,187.446C95.193,187.446 94.652,333.259 95.675,411.139C98.786,457.117 144.854,457.102 144.854,457.102C144.854,457.102 295.257,456.661 367.388,456.213C370.771,456.191 374.149,455.827 377.432,455.006C418.5,444.731 422.749,406.578 422.31,385.31C504.858,389.896 563.102,331.646 548.427,254.133ZM455.696,329.808C438.091,332.008 423.788,330.356 423.788,330.356L423.788,222.561L445.45,222.561C459.767,222.561 473.577,228.522 482.919,239.371C489.495,247.009 494.756,257.759 494.756,272.608C494.756,308.907 476.052,323.208 455.696,329.808Z" style="fill:white;fill-rule:nonzero;"/>
        <path d="M548.427,254.133C542.107,220.759 524.142,199.969 505.73,187.114C486.689,173.819 463.881,166.988 440.658,166.988L111.072,166.988C99.607,166.988 95.215,178.182 95.171,183.789C95.167,184.52 95.193,187.446 95.193,187.446C95.193,187.446 94.652,333.259 95.675,411.139C98.786,457.117 144.854,457.102 144.854,457.102C144.854,457.102 295.257,456.661 367.388,456.213C370.771,456.191 374.149,455.827 377.432,455.006C418.5,444.731 422.749,406.578 422.31,385.31C504.858,389.896 563.102,331.646 548.427,254.133ZM455.696,329.808C438.091,332.008 423.788,330.356 423.788,330.356L423.788,222.561L445.45,222.561C459.767,222.561 473.577,228.522 482.919,239.371C489.495,247.009 494.756,257.759 494.756,272.608C494.756,308.907 476.052,323.208 455.696,329.808Z" style="fill:none;stroke:rgb(50,59,71);stroke-width:7px;"/>
        <path d="M256.614,396.633C260.199,398.438 262.489,396.195 262.489,396.195C262.489,396.195 314.946,348.317 338.578,320.744C359.598,296.078 360.968,254.51 324.871,238.978C288.774,223.447 259.075,257.25 259.075,257.25C233.32,228.924 194.342,230.358 176.313,249.528C158.285,268.698 164.58,301.601 178.03,319.912C190.655,337.102 246.148,386.562 254.56,394.927C254.56,394.927 255.172,395.567 256.614,396.633Z" style="fill:rgb(241,94,94);fill-rule:nonzero;"/>
    </g>
</svg>
